<svg width="36" height="41" viewBox="0 0 36 41" fill="none" xmlns="http://www.w3.org/2000/svg">
<path d="M34.8372 22.4443L27.004 26.9672L20.375 20.4176L26.9314 13.8511L34.8372 18.4162C36.3876 19.3113 36.3876 21.5474 34.8372 22.4443Z" fill="#064045"/>
<path d="M27.0057 26.9668L3.48927 40.5423C2.50632 41.1098 1.3663 40.8683 0.665405 40.1572L20.3767 20.4172L27.0057 26.9668Z" fill="#09646B"/>
<path d="M20.375 20.4173L0.665432 40.1573C0.260093 39.7486 0 39.1828 0 38.5292V2.3291C0 1.73967 0.211114 1.22455 0.547207 0.829346L20.375 20.4173Z" fill="#075056"/>
<path d="M26.9314 13.8508L20.375 20.4173L0.54718 0.827648C1.23288 0.0220374 2.44721 -0.285341 3.48758 0.314223L26.9314 13.8508Z" fill="#064045"/>
</svg>
